<mxfile modified="2024-08-12T11:27:33.165Z" host="Electron" agent="Mozilla/5.0 (Windows NT 10.0; Win64; x64) AppleWebKit/537.36 (KHTML, like Gecko) draw.io/23.1.5 Chrome/120.0.6099.109 Electron/28.1.0 Safari/537.36" etag="K16znjzkAK6tl8KGt9un" version="23.1.5" type="device">
  <diagram id="l8hXMBHkgcEJcSW0mbfh" name="SpringRemoteShell 기능을 이용한 어뎁터 모니터링">
    <mxGraphModel dx="1434" dy="1663" grid="1" gridSize="10" guides="1" tooltips="1" connect="1" arrows="1" fold="1" page="1" pageScale="1" pageWidth="1169" pageHeight="827" math="0" shadow="0">
      <root>
        <mxCell id="0" />
        <mxCell id="1" parent="0" />
        <mxCell id="ze45pgXB7IgnFqlJJoJw-29" value="" style="endArrow=classic;html=1;rounded=0;entryX=1;entryY=0.5;entryDx=0;entryDy=0;" edge="1" parent="1" source="ze45pgXB7IgnFqlJJoJw-1" target="ze45pgXB7IgnFqlJJoJw-27">
          <mxGeometry width="50" height="50" relative="1" as="geometry">
            <mxPoint x="865" y="420" as="sourcePoint" />
            <mxPoint x="915" y="370" as="targetPoint" />
          </mxGeometry>
        </mxCell>
        <mxCell id="ze45pgXB7IgnFqlJJoJw-42" value="" style="group" vertex="1" connectable="0" parent="1">
          <mxGeometry x="710" y="30" width="405" height="310" as="geometry" />
        </mxCell>
        <mxCell id="ze45pgXB7IgnFqlJJoJw-55" value="" style="group;rotation=15;" vertex="1" connectable="0" parent="ze45pgXB7IgnFqlJJoJw-42">
          <mxGeometry width="405" height="310" as="geometry" />
        </mxCell>
        <mxCell id="8--HhbSZYtI3ddgJnD71-26" style="edgeStyle=none;rounded=0;orthogonalLoop=1;jettySize=auto;html=1;sourcePerimeterSpacing=5;endArrow=none;endFill=0;targetPerimeterSpacing=5;" parent="ze45pgXB7IgnFqlJJoJw-55" source="ze45pgXB7IgnFqlJJoJw-1" edge="1">
          <mxGeometry relative="1" as="geometry">
            <mxPoint x="132" y="167" as="sourcePoint" />
            <mxPoint x="79" y="58" as="targetPoint" />
          </mxGeometry>
        </mxCell>
        <mxCell id="8--HhbSZYtI3ddgJnD71-28" style="edgeStyle=none;rounded=0;orthogonalLoop=1;jettySize=auto;html=1;sourcePerimeterSpacing=5;endArrow=none;endFill=0;targetPerimeterSpacing=5;" parent="ze45pgXB7IgnFqlJJoJw-55" source="ze45pgXB7IgnFqlJJoJw-1" edge="1">
          <mxGeometry relative="1" as="geometry">
            <mxPoint x="184" y="183" as="sourcePoint" />
            <mxPoint x="267" y="138" as="targetPoint" />
          </mxGeometry>
        </mxCell>
        <mxCell id="8--HhbSZYtI3ddgJnD71-29" style="edgeStyle=none;rounded=0;orthogonalLoop=1;jettySize=auto;html=1;sourcePerimeterSpacing=5;endArrow=none;endFill=0;targetPerimeterSpacing=5;" parent="ze45pgXB7IgnFqlJJoJw-55" source="ze45pgXB7IgnFqlJJoJw-1" edge="1">
          <mxGeometry relative="1" as="geometry">
            <mxPoint x="178" y="205" as="sourcePoint" />
            <mxPoint x="317" y="220" as="targetPoint" />
          </mxGeometry>
        </mxCell>
        <mxCell id="8--HhbSZYtI3ddgJnD71-30" style="edgeStyle=none;rounded=0;orthogonalLoop=1;jettySize=auto;html=1;sourcePerimeterSpacing=5;endArrow=none;endFill=0;targetPerimeterSpacing=5;" parent="ze45pgXB7IgnFqlJJoJw-55" source="ze45pgXB7IgnFqlJJoJw-1" edge="1">
          <mxGeometry relative="1" as="geometry">
            <mxPoint x="174" y="222" as="sourcePoint" />
            <mxPoint x="272" y="304" as="targetPoint" />
          </mxGeometry>
        </mxCell>
        <mxCell id="ze45pgXB7IgnFqlJJoJw-1" value="Agent" style="sketch=0;outlineConnect=0;fontColor=#232F3E;gradientColor=none;fillColor=#E7157B;strokeColor=none;dashed=0;verticalLabelPosition=bottom;verticalAlign=top;align=center;html=1;fontSize=12;fontStyle=0;aspect=fixed;pointerEvents=1;shape=mxgraph.aws4.automation;rotation=15;" vertex="1" parent="ze45pgXB7IgnFqlJJoJw-55">
          <mxGeometry x="120" y="168" width="60" height="60" as="geometry" />
        </mxCell>
        <mxCell id="ze45pgXB7IgnFqlJJoJw-3" value="" style="shape=cross;whiteSpace=wrap;html=1;size=0.5076923076923077;fillColor=#ffe6cc;strokeColor=#d79b00;rotation=15;" vertex="1" parent="ze45pgXB7IgnFqlJJoJw-55">
          <mxGeometry x="26" y="1" width="80" height="70" as="geometry" />
        </mxCell>
        <mxCell id="ze45pgXB7IgnFqlJJoJw-5" value="" style="shape=cross;whiteSpace=wrap;html=1;size=0.5076923076923077;fillColor=#ffe6cc;strokeColor=#d79b00;rotation=15;" vertex="1" parent="ze45pgXB7IgnFqlJJoJw-55">
          <mxGeometry x="155" y="-6" width="80" height="70" as="geometry" />
        </mxCell>
        <mxCell id="ze45pgXB7IgnFqlJJoJw-6" value="" style="shape=cross;whiteSpace=wrap;html=1;size=0.5076923076923077;fillColor=#ffe6cc;strokeColor=#d79b00;rotation=15;" vertex="1" parent="ze45pgXB7IgnFqlJJoJw-55">
          <mxGeometry x="248" y="81" width="80" height="70" as="geometry" />
        </mxCell>
        <mxCell id="ze45pgXB7IgnFqlJJoJw-7" value="" style="shape=cross;whiteSpace=wrap;html=1;size=0.5076923076923077;fillColor=#ffe6cc;strokeColor=#d79b00;rotation=15;" vertex="1" parent="ze45pgXB7IgnFqlJJoJw-55">
          <mxGeometry x="312" y="191" width="80" height="70" as="geometry" />
        </mxCell>
        <mxCell id="ze45pgXB7IgnFqlJJoJw-8" value="" style="shape=cross;whiteSpace=wrap;html=1;size=0.5076923076923077;fillColor=#ffe6cc;strokeColor=#d79b00;rotation=15;" vertex="1" parent="ze45pgXB7IgnFqlJJoJw-55">
          <mxGeometry x="259" y="270" width="80" height="70" as="geometry" />
        </mxCell>
        <mxCell id="ze45pgXB7IgnFqlJJoJw-11" style="edgeStyle=none;rounded=0;orthogonalLoop=1;jettySize=auto;html=1;sourcePerimeterSpacing=5;endArrow=none;endFill=0;targetPerimeterSpacing=5;entryX=0.5;entryY=1;entryDx=0;entryDy=0;entryPerimeter=0;" edge="1" parent="ze45pgXB7IgnFqlJJoJw-55" source="ze45pgXB7IgnFqlJJoJw-1" target="ze45pgXB7IgnFqlJJoJw-5">
          <mxGeometry relative="1" as="geometry">
            <mxPoint x="199" y="188" as="sourcePoint" />
            <mxPoint x="274" y="150" as="targetPoint" />
          </mxGeometry>
        </mxCell>
        <mxCell id="ze45pgXB7IgnFqlJJoJw-43" value="" style="group;rotation=-60;" vertex="1" connectable="0" parent="1">
          <mxGeometry x="110" y="80" width="405" height="310" as="geometry" />
        </mxCell>
        <mxCell id="ze45pgXB7IgnFqlJJoJw-44" style="edgeStyle=none;rounded=0;orthogonalLoop=1;jettySize=auto;html=1;sourcePerimeterSpacing=5;endArrow=none;endFill=0;targetPerimeterSpacing=5;" edge="1" parent="ze45pgXB7IgnFqlJJoJw-43" source="ze45pgXB7IgnFqlJJoJw-48">
          <mxGeometry relative="1" as="geometry">
            <mxPoint x="194" y="172" as="sourcePoint" />
            <mxPoint x="75" y="195" as="targetPoint" />
          </mxGeometry>
        </mxCell>
        <mxCell id="ze45pgXB7IgnFqlJJoJw-45" style="edgeStyle=none;rounded=0;orthogonalLoop=1;jettySize=auto;html=1;sourcePerimeterSpacing=5;endArrow=none;endFill=0;targetPerimeterSpacing=5;" edge="1" parent="ze45pgXB7IgnFqlJJoJw-43" source="ze45pgXB7IgnFqlJJoJw-48">
          <mxGeometry relative="1" as="geometry">
            <mxPoint x="222" y="126" as="sourcePoint" />
            <mxPoint x="201" y="35" as="targetPoint" />
          </mxGeometry>
        </mxCell>
        <mxCell id="ze45pgXB7IgnFqlJJoJw-46" style="edgeStyle=none;rounded=0;orthogonalLoop=1;jettySize=auto;html=1;sourcePerimeterSpacing=5;endArrow=none;endFill=0;targetPerimeterSpacing=5;" edge="1" parent="ze45pgXB7IgnFqlJJoJw-43" source="ze45pgXB7IgnFqlJJoJw-48">
          <mxGeometry relative="1" as="geometry">
            <mxPoint x="243" y="138" as="sourcePoint" />
            <mxPoint x="293" y="7" as="targetPoint" />
          </mxGeometry>
        </mxCell>
        <mxCell id="ze45pgXB7IgnFqlJJoJw-47" style="edgeStyle=none;rounded=0;orthogonalLoop=1;jettySize=auto;html=1;sourcePerimeterSpacing=5;endArrow=none;endFill=0;targetPerimeterSpacing=5;" edge="1" parent="ze45pgXB7IgnFqlJJoJw-43" source="ze45pgXB7IgnFqlJJoJw-48">
          <mxGeometry relative="1" as="geometry">
            <mxPoint x="258" y="146" as="sourcePoint" />
            <mxPoint x="362" y="73" as="targetPoint" />
          </mxGeometry>
        </mxCell>
        <mxCell id="ze45pgXB7IgnFqlJJoJw-48" value="Agent" style="sketch=0;outlineConnect=0;fontColor=#232F3E;gradientColor=none;fillColor=#E7157B;strokeColor=none;dashed=0;verticalLabelPosition=bottom;verticalAlign=top;align=center;html=1;fontSize=12;fontStyle=0;aspect=fixed;pointerEvents=1;shape=mxgraph.aws4.automation;rotation=-60;" vertex="1" parent="ze45pgXB7IgnFqlJJoJw-43">
          <mxGeometry x="198" y="133" width="60" height="60" as="geometry" />
        </mxCell>
        <mxCell id="ze45pgXB7IgnFqlJJoJw-49" value="" style="shape=cross;whiteSpace=wrap;html=1;size=0.5076923076923077;fillColor=#ffe6cc;strokeColor=#d79b00;rotation=-60;" vertex="1" parent="ze45pgXB7IgnFqlJJoJw-43">
          <mxGeometry x="10" y="167" width="80" height="70" as="geometry" />
        </mxCell>
        <mxCell id="ze45pgXB7IgnFqlJJoJw-50" value="" style="shape=cross;whiteSpace=wrap;html=1;size=0.5076923076923077;fillColor=#ffe6cc;strokeColor=#d79b00;rotation=-60;" vertex="1" parent="ze45pgXB7IgnFqlJJoJw-43">
          <mxGeometry x="37" y="40" width="80" height="70" as="geometry" />
        </mxCell>
        <mxCell id="ze45pgXB7IgnFqlJJoJw-51" value="" style="shape=cross;whiteSpace=wrap;html=1;size=0.5076923076923077;fillColor=#ffe6cc;strokeColor=#d79b00;rotation=-60;" vertex="1" parent="ze45pgXB7IgnFqlJJoJw-43">
          <mxGeometry x="145" y="-27" width="80" height="70" as="geometry" />
        </mxCell>
        <mxCell id="ze45pgXB7IgnFqlJJoJw-52" value="" style="shape=cross;whiteSpace=wrap;html=1;size=0.5076923076923077;fillColor=#ffe6cc;strokeColor=#d79b00;rotation=-60;" vertex="1" parent="ze45pgXB7IgnFqlJJoJw-43">
          <mxGeometry x="268" y="-60" width="80" height="70" as="geometry" />
        </mxCell>
        <mxCell id="ze45pgXB7IgnFqlJJoJw-53" value="" style="shape=cross;whiteSpace=wrap;html=1;size=0.5076923076923077;fillColor=#ffe6cc;strokeColor=#d79b00;rotation=-60;" vertex="1" parent="ze45pgXB7IgnFqlJJoJw-43">
          <mxGeometry x="331" y="11" width="80" height="70" as="geometry" />
        </mxCell>
        <mxCell id="ze45pgXB7IgnFqlJJoJw-54" style="edgeStyle=none;rounded=0;orthogonalLoop=1;jettySize=auto;html=1;sourcePerimeterSpacing=5;endArrow=none;endFill=0;targetPerimeterSpacing=5;entryX=0.5;entryY=1;entryDx=0;entryDy=0;entryPerimeter=0;" edge="1" parent="ze45pgXB7IgnFqlJJoJw-43" source="ze45pgXB7IgnFqlJJoJw-48" target="ze45pgXB7IgnFqlJJoJw-50">
          <mxGeometry relative="1" as="geometry">
            <mxPoint x="232" y="113" as="sourcePoint" />
            <mxPoint x="214" y="31" as="targetPoint" />
          </mxGeometry>
        </mxCell>
        <mxCell id="ze45pgXB7IgnFqlJJoJw-56" value="" style="endArrow=classic;html=1;rounded=0;" edge="1" parent="1" source="ze45pgXB7IgnFqlJJoJw-27">
          <mxGeometry width="50" height="50" relative="1" as="geometry">
            <mxPoint x="835" y="260" as="sourcePoint" />
            <mxPoint x="650" y="320" as="targetPoint" />
          </mxGeometry>
        </mxCell>
        <mxCell id="ze45pgXB7IgnFqlJJoJw-57" value="" style="endArrow=classic;html=1;rounded=0;" edge="1" parent="1" source="ze45pgXB7IgnFqlJJoJw-48" target="ze45pgXB7IgnFqlJJoJw-27">
          <mxGeometry width="50" height="50" relative="1" as="geometry">
            <mxPoint x="368" y="250" as="sourcePoint" />
            <mxPoint x="650" y="320" as="targetPoint" />
          </mxGeometry>
        </mxCell>
        <mxCell id="ze45pgXB7IgnFqlJJoJw-27" value="Broker Server" style="image;aspect=fixed;perimeter=ellipsePerimeter;html=1;align=center;shadow=0;dashed=0;fontColor=#4277BB;labelBackgroundColor=default;fontSize=12;spacingTop=3;image=img/lib/ibm/applications/service_broker.svg;" vertex="1" parent="1">
          <mxGeometry x="610" y="291" width="60" height="60" as="geometry" />
        </mxCell>
        <mxCell id="ze45pgXB7IgnFqlJJoJw-58" value="Command Line Monitoring" style="sketch=0;outlineConnect=0;fontColor=#232F3E;gradientColor=none;strokeColor=#ffffff;fillColor=#232F3E;dashed=0;verticalLabelPosition=middle;verticalAlign=bottom;align=center;html=1;whiteSpace=wrap;fontSize=10;fontStyle=1;spacing=3;shape=mxgraph.aws4.productIcon;prIcon=mxgraph.aws4.command_line_interface;" vertex="1" parent="1">
          <mxGeometry x="310" y="480" width="80" height="120" as="geometry" />
        </mxCell>
        <mxCell id="ze45pgXB7IgnFqlJJoJw-59" value="" style="endArrow=classic;html=1;rounded=0;" edge="1" parent="1" source="ze45pgXB7IgnFqlJJoJw-58">
          <mxGeometry width="50" height="50" relative="1" as="geometry">
            <mxPoint x="378" y="278" as="sourcePoint" />
            <mxPoint x="621" y="340" as="targetPoint" />
          </mxGeometry>
        </mxCell>
        <mxCell id="ze45pgXB7IgnFqlJJoJw-72" value="" style="group;rotation=75;" vertex="1" connectable="0" parent="1">
          <mxGeometry x="650.004300369849" y="379.9998342757817" width="381.391399260302" height="364.3203314484365" as="geometry" />
        </mxCell>
        <mxCell id="ze45pgXB7IgnFqlJJoJw-61" style="edgeStyle=none;rounded=0;orthogonalLoop=1;jettySize=auto;html=1;sourcePerimeterSpacing=5;endArrow=none;endFill=0;targetPerimeterSpacing=5;" edge="1" parent="ze45pgXB7IgnFqlJJoJw-72" source="ze45pgXB7IgnFqlJJoJw-65">
          <mxGeometry relative="1" as="geometry">
            <mxPoint x="171" y="108" as="sourcePoint" />
            <mxPoint x="262" y="28" as="targetPoint" />
          </mxGeometry>
        </mxCell>
        <mxCell id="ze45pgXB7IgnFqlJJoJw-62" style="edgeStyle=none;rounded=0;orthogonalLoop=1;jettySize=auto;html=1;sourcePerimeterSpacing=5;endArrow=none;endFill=0;targetPerimeterSpacing=5;" edge="1" parent="ze45pgXB7IgnFqlJJoJw-72" source="ze45pgXB7IgnFqlJJoJw-65">
          <mxGeometry relative="1" as="geometry">
            <mxPoint x="169" y="162" as="sourcePoint" />
            <mxPoint x="234" y="231" as="targetPoint" />
          </mxGeometry>
        </mxCell>
        <mxCell id="ze45pgXB7IgnFqlJJoJw-63" style="edgeStyle=none;rounded=0;orthogonalLoop=1;jettySize=auto;html=1;sourcePerimeterSpacing=5;endArrow=none;endFill=0;targetPerimeterSpacing=5;" edge="1" parent="ze45pgXB7IgnFqlJJoJw-72" source="ze45pgXB7IgnFqlJJoJw-65">
          <mxGeometry relative="1" as="geometry">
            <mxPoint x="146" y="162" as="sourcePoint" />
            <mxPoint x="167" y="300" as="targetPoint" />
          </mxGeometry>
        </mxCell>
        <mxCell id="ze45pgXB7IgnFqlJJoJw-64" style="edgeStyle=none;rounded=0;orthogonalLoop=1;jettySize=auto;html=1;sourcePerimeterSpacing=5;endArrow=none;endFill=0;targetPerimeterSpacing=5;" edge="1" parent="ze45pgXB7IgnFqlJJoJw-72" source="ze45pgXB7IgnFqlJJoJw-65">
          <mxGeometry relative="1" as="geometry">
            <mxPoint x="129" y="163" as="sourcePoint" />
            <mxPoint x="75" y="278" as="targetPoint" />
          </mxGeometry>
        </mxCell>
        <mxCell id="ze45pgXB7IgnFqlJJoJw-65" value="Agent" style="sketch=0;outlineConnect=0;fontColor=#232F3E;gradientColor=none;fillColor=#E7157B;strokeColor=none;dashed=0;verticalLabelPosition=bottom;verticalAlign=top;align=center;html=1;fontSize=12;fontStyle=0;aspect=fixed;pointerEvents=1;shape=mxgraph.aws4.automation;rotation=90;" vertex="1" parent="ze45pgXB7IgnFqlJJoJw-72">
          <mxGeometry x="115" y="103" width="60" height="60" as="geometry" />
        </mxCell>
        <mxCell id="ze45pgXB7IgnFqlJJoJw-66" value="" style="shape=cross;whiteSpace=wrap;html=1;size=0.5076923076923077;fillColor=#ffe6cc;strokeColor=#d79b00;rotation=90;" vertex="1" parent="ze45pgXB7IgnFqlJJoJw-72">
          <mxGeometry x="240" y="-25" width="80" height="70" as="geometry" />
        </mxCell>
        <mxCell id="ze45pgXB7IgnFqlJJoJw-67" value="" style="shape=cross;whiteSpace=wrap;html=1;size=0.5076923076923077;fillColor=#ffe6cc;strokeColor=#d79b00;rotation=90;" vertex="1" parent="ze45pgXB7IgnFqlJJoJw-72">
          <mxGeometry x="280" y="98" width="80" height="70" as="geometry" />
        </mxCell>
        <mxCell id="ze45pgXB7IgnFqlJJoJw-68" value="" style="shape=cross;whiteSpace=wrap;html=1;size=0.5076923076923077;fillColor=#ffe6cc;strokeColor=#d79b00;rotation=90;" vertex="1" parent="ze45pgXB7IgnFqlJJoJw-72">
          <mxGeometry x="220" y="210" width="80" height="70" as="geometry" />
        </mxCell>
        <mxCell id="ze45pgXB7IgnFqlJJoJw-69" value="" style="shape=cross;whiteSpace=wrap;html=1;size=0.5076923076923077;fillColor=#ffe6cc;strokeColor=#d79b00;rotation=90;" vertex="1" parent="ze45pgXB7IgnFqlJJoJw-72">
          <mxGeometry x="131" y="301" width="80" height="70" as="geometry" />
        </mxCell>
        <mxCell id="ze45pgXB7IgnFqlJJoJw-70" value="" style="shape=cross;whiteSpace=wrap;html=1;size=0.5076923076923077;fillColor=#ffe6cc;strokeColor=#d79b00;rotation=90;" vertex="1" parent="ze45pgXB7IgnFqlJJoJw-72">
          <mxGeometry x="41" y="270" width="80" height="70" as="geometry" />
        </mxCell>
        <mxCell id="ze45pgXB7IgnFqlJJoJw-71" style="edgeStyle=none;rounded=0;orthogonalLoop=1;jettySize=auto;html=1;sourcePerimeterSpacing=5;endArrow=none;endFill=0;targetPerimeterSpacing=5;entryX=0.5;entryY=1;entryDx=0;entryDy=0;entryPerimeter=0;" edge="1" parent="ze45pgXB7IgnFqlJJoJw-72" source="ze45pgXB7IgnFqlJJoJw-65" target="ze45pgXB7IgnFqlJJoJw-67">
          <mxGeometry relative="1" as="geometry">
            <mxPoint x="168" y="178" as="sourcePoint" />
            <mxPoint x="224" y="241" as="targetPoint" />
          </mxGeometry>
        </mxCell>
        <mxCell id="ze45pgXB7IgnFqlJJoJw-73" value="" style="endArrow=classic;html=1;rounded=0;" edge="1" parent="1" target="ze45pgXB7IgnFqlJJoJw-27">
          <mxGeometry width="50" height="50" relative="1" as="geometry">
            <mxPoint x="760" y="490" as="sourcePoint" />
            <mxPoint x="680" y="331" as="targetPoint" />
          </mxGeometry>
        </mxCell>
      </root>
    </mxGraphModel>
  </diagram>
</mxfile>
